<svg width="32" height="32" viewBox="0 0 32 32" fill="none" xmlns="http://www.w3.org/2000/svg">
<path fill-rule="evenodd" clip-rule="evenodd" d="M19.8446 0C20.2992 0 20.7353 0.180612 21.0568 0.502103C21.3782 0.823594 21.5589 1.25963 21.5589 1.71429V4.42971H23.9246C24.8339 4.42971 25.706 4.79094 26.3489 5.43392C26.9919 6.0769 27.3531 6.94897 27.3531 7.85828V10.2263H30.1394C30.5941 10.2263 31.0301 10.4069 31.3516 10.7284C31.6731 11.0499 31.8537 11.4859 31.8537 11.9406C31.8537 12.3952 31.6731 12.8313 31.3516 13.1528C31.0301 13.4742 30.5941 13.6549 30.1394 13.6549H27.3509V18.0663H30.1394C30.5941 18.0663 31.0301 18.2469 31.3516 18.5684C31.6731 18.8899 31.8537 19.3259 31.8537 19.7806C31.8537 20.2352 31.6731 20.6713 31.3516 20.9928C31.0301 21.3142 30.5941 21.4949 30.1394 21.4949H27.3509V23.856C27.3509 24.7653 26.9896 25.6374 26.3467 26.2804C25.7037 26.9233 24.8316 27.2846 23.9223 27.2846H21.5611V30.1029C21.5611 30.5575 21.3805 30.9935 21.059 31.315C20.7375 31.6365 20.3015 31.8171 19.8469 31.8171C19.3922 31.8171 18.9562 31.6365 18.6347 31.315C18.3132 30.9935 18.1326 30.5575 18.1326 30.1029V27.2846H13.7211V30.1029C13.7211 30.5575 13.5405 30.9935 13.219 31.315C12.8975 31.6365 12.4615 31.8171 12.0069 31.8171C11.5522 31.8171 11.1162 31.6365 10.7947 31.315C10.4732 30.9935 10.2926 30.5575 10.2926 30.1029V27.2846H7.92686C7.01754 27.2846 6.14547 26.9233 5.50249 26.2804C4.85951 25.6374 4.49829 24.7653 4.49829 23.856V21.4926H1.71429C1.25963 21.4926 0.823594 21.312 0.502103 20.9905C0.180612 20.669 0 20.2329 0 19.7783C0 19.3236 0.180612 18.8876 0.502103 18.5661C0.823594 18.2446 1.25963 18.064 1.71429 18.064H4.49829V13.6526H1.71429C1.25963 13.6526 0.823594 13.472 0.502103 13.1505C0.180612 12.829 0 12.3929 0 11.9383C0 11.4836 0.180612 11.0476 0.502103 10.7261C0.823594 10.4046 1.25963 10.224 1.71429 10.224H4.49829V7.86057C4.49829 6.95126 4.85951 6.07919 5.50249 5.4362C6.14547 4.79322 7.01754 4.432 7.92686 4.432H10.2926V1.71429C10.2926 1.25963 10.4732 0.823594 10.7947 0.502103C11.1162 0.180612 11.5522 0 12.0069 0C12.4615 0 12.8975 0.180612 13.219 0.502103C13.5405 0.823594 13.7211 1.25963 13.7211 1.71429V4.42971H18.1326V1.71429C18.1326 1.25963 18.3132 0.823594 18.6347 0.502103C18.9562 0.180612 19.3922 0 19.8469 0M14.1966 10.3497C14.5989 8.512 17.2137 8.50057 17.632 10.336L17.6503 10.416L17.6869 10.576C17.9028 11.4891 18.3816 12.3189 19.0641 12.9628C19.7465 13.6066 20.6028 14.0364 21.5269 14.1989C23.4469 14.5326 23.4469 17.2846 21.5269 17.6183C20.5974 17.7818 19.7367 18.2158 19.0525 18.8658C18.3683 19.5159 17.8909 20.3532 17.68 21.2731L17.632 21.4811C17.2137 23.3166 14.5989 23.3051 14.1966 21.4674L14.1554 21.2869C13.9539 20.3632 13.4815 19.5206 12.7988 18.8668C12.116 18.2129 11.2538 17.7774 10.3223 17.616C8.40686 17.2823 8.40686 14.5349 10.3223 14.2011C11.2505 14.0402 12.11 13.607 12.7917 12.9567C13.4733 12.3064 13.9464 11.4682 14.1509 10.5486L14.1806 10.4183L14.1966 10.3497Z" fill="#0049AF"/>
</svg>
